<?xml version="1.0" standalone="no"?>
<!DOCTYPE svg PUBLIC "-//W3C//DTD SVG 20010904//EN"
 "http://www.w3.org/TR/2001/REC-SVG-20010904/DTD/svg10.dtd">
<svg version="1.0" xmlns="http://www.w3.org/2000/svg"
 width="2000.000000pt" height="2000.000000pt" viewBox="0 0 2000.000000 2000.000000"
 preserveAspectRatio="xMidYMid meet">

<g transform="translate(0.000000,2000.000000) scale(0.100000,-0.100000)"
fill="#000000" stroke="none">
<path d="M0 10000 l0 -10000 10000 0 10000 0 0 10000 0 10000 -10000 0 -10000
0 0 -10000z m9026 2040 c821 -30 1449 -128 2112 -331 346 -106 669 -238 1040
-425 l222 -113 168 -16 c568 -53 1172 -150 1592 -255 l155 -39 265 -4 c276 -5
384 -17 583 -67 317 -80 602 -235 792 -429 l49 -51 -109 46 c-134 55 -416 156
-421 151 -3 -2 31 -19 73 -36 242 -101 549 -284 678 -405 l70 -65 -1422 -1
-1423 0 -67 43 c-258 164 -713 384 -1088 525 -792 298 -1555 443 -2335 443
-481 0 -880 -43 -1289 -139 l-113 -26 -22 29 c-114 159 -336 393 -501 530 -95
79 -240 178 -345 234 -391 210 -794 228 -1294 60 -286 -97 -627 -263 -875
-427 -64 -43 -69 -37 99 -122 381 -192 926 -318 1554 -359 225 -15 697 -13
920 4 105 8 192 13 194 11 6 -7 -214 -55 -342 -76 -154 -25 -350 -45 -589 -61
-211 -13 -962 -7 -1207 11 -273 19 -776 65 -830 76 -17 3 -20 2 -10 -4 8 -5
711 -168 1562 -363 851 -195 1541 -355 1533 -357 -7 -2 -130 13 -272 33 -483
66 -538 74 -763 105 -124 16 -389 52 -590 80 -342 46 -604 81 -985 130 -331
43 -461 43 -590 0 -146 -50 -245 -181 -245 -327 l0 -44 -47 36 c-64 49 -211
119 -298 141 -97 26 -342 26 -435 1 -125 -34 -279 -102 -364 -160 -39 -28 -46
-13 -46 103 0 128 21 217 75 326 50 103 132 196 222 254 29 18 51 35 49 37 -2
2 -25 -1 -51 -7 -26 -6 -50 -8 -53 -5 -13 13 102 100 193 145 119 58 226 87
378 101 185 17 284 59 634 270 573 345 929 504 1398 624 343 88 599 119 1235
150 519 25 790 29 1176 15z m1377 -1270 c759 -78 1626 -371 2063 -699 l89 -66
-610 -3 -610 -2 -54 62 c-211 243 -475 406 -755 469 -49 11 -90 18 -93 16 -2
-2 25 -14 59 -27 236 -84 477 -260 591 -432 63 -95 73 -88 -122 -88 l-172 0
-77 78 c-193 195 -428 311 -670 330 -222 18 -452 -36 -656 -153 -44 -25 -81
-43 -83 -42 -2 2 20 37 49 78 91 130 228 253 371 335 l39 22 -71 16 c-111 25
-266 38 -386 33 l-110 -6 75 20 c300 76 741 100 1133 59z m-1946 -746 c-3 -3
-12 -4 -19 -1 -8 3 -5 6 6 6 11 1 17 -2 13 -5z m-2146 -298 c28 -10 42 -10 70
0 44 16 656 19 712 3 21 -5 54 -24 74 -42 68 -60 68 -58 71 -496 2 -217 1
-405 -3 -418 -5 -22 -9 -23 -100 -23 l-95 0 0 379 c0 332 -2 382 -16 395 -13
14 -53 16 -283 16 -194 0 -270 -3 -279 -12 -9 -9 -12 -107 -12 -379 0 -202 -3
-374 -6 -383 -5 -13 -24 -16 -100 -16 l-94 0 0 379 c0 332 -2 382 -16 395 -13
14 -53 16 -279 16 -145 0 -270 -3 -279 -6 -14 -5 -16 -48 -16 -379 0 -205 -3
-380 -6 -389 -5 -13 -24 -16 -100 -16 l-94 0 0 418 c0 384 2 420 19 457 23 50
58 83 108 100 53 19 671 20 724 1z m2562 3 c51 -14 102 -61 122 -112 14 -36
15 -90 13 -394 l-3 -351 -31 -39 c-16 -21 -50 -48 -74 -60 l-44 -23 -536 0
c-497 0 -538 2 -575 19 -49 22 -91 69 -105 119 -8 25 -10 151 -8 378 l3 341
27 41 c27 40 65 66 118 83 40 12 1049 11 1093 -2z m729 9 c1 -2 5 -106 8 -233
l5 -229 235 -143 c129 -79 242 -143 250 -143 8 0 121 65 250 144 l235 143 5
229 5 229 95 0 95 0 3 -249 c2 -233 1 -252 -18 -290 -11 -23 -32 -50 -47 -60
-69 -50 -610 -376 -624 -376 -16 0 -562 330 -626 377 -59 45 -63 64 -63 340 0
137 3 253 7 256 6 6 180 10 185 5z m2963 -98 l0 -95 -583 -5 c-503 -4 -584 -7
-592 -20 -5 -8 -10 -52 -10 -97 l0 -83 548 -2 547 -3 3 -83 c2 -53 -1 -89 -9
-98 -10 -12 -100 -14 -550 -14 l-539 0 0 -78 c0 -47 5 -85 13 -95 11 -16 61
-17 592 -19 l580 -3 0 -95 0 -95 -611 -3 -611 -2 -54 28 c-42 22 -58 38 -79
77 l-25 49 0 336 c0 369 2 384 59 439 63 61 51 60 716 58 l605 -2 0 -95z
m1638 89 c50 -14 112 -71 129 -117 10 -28 13 -122 13 -372 l0 -336 -25 -49
c-21 -39 -37 -55 -80 -78 l-54 -28 -546 3 -546 3 -42 28 c-23 15 -52 46 -64
70 -23 41 -23 47 -23 392 l0 350 25 43 c24 43 67 77 118 92 42 13 1049 12
1095 -1z m-6403 -1334 c15 -8 30 -22 34 -30 3 -9 6 -95 6 -191 l0 -174 -40 0
-40 0 0 160 0 160 -120 0 -120 0 0 -161 0 -160 -42 3 -43 3 -3 158 -3 157
-119 0 -120 0 0 -160 0 -160 -40 0 -40 0 0 170 c0 177 6 210 44 228 12 6 140
10 320 11 239 0 304 -3 326 -14z m990 2 c40 -20 52 -74 48 -220 -3 -127 -3
-129 -31 -153 -28 -24 -29 -24 -257 -24 -228 0 -229 0 -257 24 l-28 24 0 155
c0 163 4 179 50 197 34 15 446 12 475 -3z m1038 -29 l-3 -43 -117 -3 -117 -3
-3 -157 -3 -157 -40 0 -40 0 -3 157 -3 157 -117 3 -117 3 -3 43 -3 42 286 0
286 0 -3 -42z m951 27 c16 -8 31 -22 35 -30 3 -9 6 -84 6 -166 0 -146 -1 -151
-25 -174 l-24 -25 -233 0 c-167 1 -237 4 -249 13 -33 25 -39 55 -39 194 0 148
7 174 54 193 11 5 117 9 234 9 168 1 219 -2 241 -14z m1013 -12 c18 -18 23
-37 26 -93 4 -66 3 -71 -26 -100 -17 -16 -38 -30 -46 -30 -20 0 -21 7 9 -80
14 -40 25 -75 25 -77 0 -2 -20 -3 -44 -3 l-44 0 -27 80 -27 80 -154 0 -154 0
0 -80 0 -80 -40 0 -40 0 0 205 0 206 260 -3 c254 -3 260 -4 282 -25z m1016
-15 l-3 -43 -242 -3 -243 -2 0 -34 c0 -22 6 -36 16 -40 9 -3 109 -6 224 -6
l209 0 20 -26 c17 -21 21 -41 21 -96 0 -60 -3 -72 -25 -93 l-24 -25 -261 0
-260 0 0 40 0 40 243 2 242 3 0 35 0 35 -220 5 c-121 4 -221 7 -222 8 -38 36
-43 49 -43 108 0 72 13 107 44 122 13 7 122 11 274 11 l253 1 -3 -42z m-7098
-178 l0 -30 -1025 0 -1025 0 0 30 0 30 1025 0 1025 0 0 -30z m10600 0 l0 -30
-1025 0 -1025 0 0 30 0 30 1025 0 1025 0 0 -30z"/>
<path d="M8605 11919 c-293 -20 -505 -74 -505 -127 0 -12 32 -43 88 -84 48
-35 159 -118 247 -183 88 -65 192 -142 230 -170 39 -29 126 -94 195 -144 l125
-93 70 6 c108 9 568 34 890 48 183 8 616 13 1174 13 l884 0 -199 97 c-737 361
-1631 587 -2518 638 -200 11 -516 11 -681 -1z"/>
<path d="M7842 9528 c-19 -19 -17 -551 2 -567 9 -8 146 -10 487 -9 l474 3 3
284 c2 221 -1 286 -10 293 -22 13 -942 10 -956 -4z"/>
<path d="M13172 9528 c-9 -9 -12 -86 -12 -283 0 -197 3 -274 12 -283 9 -9 130
-12 485 -12 457 0 473 1 483 19 6 12 10 120 10 280 0 223 -2 262 -16 275 -14
14 -71 16 -483 16 -350 0 -470 -3 -479 -12z"/>
<path d="M8352 8203 l3 -118 195 0 195 0 3 118 3 117 -201 0 -201 0 3 -117z"/>
<path d="M10337 8313 c-10 -9 -8 -205 1 -221 7 -9 54 -12 203 -10 l194 3 3
118 3 117 -199 0 c-109 0 -202 -3 -205 -7z"/>
<path d="M11330 8280 l0 -40 195 0 c185 0 195 1 205 20 6 12 8 30 5 40 -6 19
-16 20 -206 20 l-199 0 0 -40z"/>
</g>
</svg>
